# xmcd CD database file
#
# Track frame offsets:
#	150
#	12535
#	37830
#	51182
#	76199
#	91751
#	104822
#	124464
#	150133
#	171967
#	190387
#	204033
#	223678
#	239839
#	260980
#	289907
#
# Disc length: 4110 seconds
#
# Revision: 2
# Processed by: cddbd v1.5.1PL2 Copyright (c) Steve Scherf et al.
# Submitted via: CDex 1.51
#
DISCID=e6100c10
DTITLE=Various Artist - The Nuyorican Funk Experience - Salsa Caliente De NuYork!
DYEAR=2000
DGENRE=Salsa
TTITLE0=Ray Barretto/Right On
TTITLE1=Tito Alien/Salsa Rap
TTITLE2=Tito Puente and his orchestra/Fat Mama
TTITLE3=Joe Cuba Sextet/El Pito
TTITLE4=Eddie Palmieri and his orchestra/Ay Que Rico
TTITLE5=Seguida/Fuego Y La Luz
TTITLE6=Joey Pastrana and his orchestra/Let's Ball
TTITLE7=Jimmy Sabater/Que Sabroso
TTITLE8=Cella Cruz/Gracia Divina
TTITLE9=Ricardo Marrero and The Group/Un Sabor Latino
TTITLE10=Ray Olan Y Su Sason/El Poeta
TTITLE11=Louie Ramirez/Salsa Vibes
TTITLE12=Tipica 73/Balla Que Balla
TTITLE13=The Lebron Brothers Orchestra/Summertime Blues
TTITLE14=Bobby Rodriguez Y La Compania/What Happened
TTITLE15=Fania All Stars/Smoke
EXTD=YEAR: 2000
EXTT0=
EXTT1=
EXTT2=
EXTT3=
EXTT4=
EXTT5=
EXTT6=
EXTT7=
EXTT8=
EXTT9=
EXTT10=
EXTT11=
EXTT12=
EXTT13=
EXTT14=
EXTT15=
PLAYORDER=
